<?xml version="1.0" encoding="utf-8"?><svg xmlns="http://www.w3.org/2000/svg" xmlns:xlink="http://www.w3.org/1999/xlink"><symbol viewBox="0 0 500 500" id="svg--paisley" xmlns="http://www.w3.org/2000/svg"><g clip-rule="evenodd" fill-rule="evenodd"><path d="M218.79 195.45c-10.576-15.01-9.587-36.534 6.462-51.966 16.049-15.432 42.987-15.09 59.525 7.246 16.803 22.698 16.01 61.866-8.989 85.954-25.008 24.099-66.527 22.463-90.752-12.807-23.638-34.42-20.837-91.33 15.403-126.17 36.2-34.801 97.342-34.82 135.854 15.236 39.971 51.946 39.53 143.629-19.065 200.148-37.454 36.143-205.573 77.964-300.987-.714l-.039-1.107c101.573 80.08 259.45 22.688 293.369-10.027 53.072-51.183 53.69-134.248 17.586-181.495-34.908-45.68-90.566-45.787-123.555-14.07-33.019 31.745-35.496 83.603-13.934 114.899 22.051 32 59.76 33.43 82.458 11.564 22.688-21.866 23.452-57.42 8.216-78.062-15.012-20.338-39.511-20.68-54.111-6.639-14.6 14.052-15.5 33.303-5.865 46.953 9.723 13.787 9.116 16.235-1.577 1.057z"/><path d="M323.75 387.774c-1.499 9.146 4.523 20.328 15.216 23.755 10.683 3.418 22.816-2.692 25.41-16.44 2.635-13.973-6.325-31.53-22.981-36.955-16.715-5.435-35.3 4.484-38.532 25.88-3.143 20.857 10.752 46.013 34.918 53.69 24.06 7.647 51.692-5.895 58.155-36.926 6.698-32.235-13.523-73.665-52.554-86.522-25.077-8.265-44.759-4.054-63.334 11.877l5.062 5.895c16.872-14.365 34.693-18.154 57.401-10.683 35.359 11.623 53.797 49.107 47.814 78.375-5.787 28.29-30.923 40.667-52.857 33.685-22.022-7.001-34.654-29.944-31.755-48.921 2.967-19.427 19.848-28.407 35.016-23.471 15.119 4.915 23.275 20.847 20.906 33.547-2.34 12.504-13.376 18.076-23.09 14.962-9.743-3.114-15.217-13.297-13.846-21.62 1.381-8.401.558-9.38-.95-.128zm-129.959-6.981c-5.983.823-11.819 6.747-11.936 14.11-.128 7.354 5.973 13.788 15.02 12.77 9.195-1.039 18.458-10.047 18.693-21.533.245-11.516-9.42-21.259-23.353-19.163-13.602 2.037-26.654 15.599-26.89 32.225-.234 16.559 13.386 31.266 33.94 29.337 21.346-1.997 43.349-22.659 44.015-49.596.43-17.313-5.885-28.838-19.31-37.416l-2.712 4.309c12.122 7.814 17.83 18.252 17.449 33.92-.597 24.41-20.475 43.192-39.844 45.072-18.702 1.821-31.138-11.555-30.923-26.654.225-15.148 12.142-27.486 24.51-29.327 12.66-1.88 21.424 6.972 21.209 17.43-.215 10.428-8.607 18.614-16.97 19.564-8.225.95-13.777-4.896-13.67-11.593.118-6.698 5.435-12.094 10.87-12.838 5.493-.755 5.953-1.45-.098-.617zm-43.967-58.977c2.497-3.388 2.36-9.165-1.283-12.759-3.633-3.584-9.821-3.613-13.709 1.41-3.946 5.112-3.926 14.071 1.724 19.711 5.67 5.65 15.256 5.474 20.974-2.526 5.582-7.794 5.121-20.847-3.114-28.945-8.195-8.059-22.208-8.284-31.226 2.947-9.361 11.663-9.685 32.608 3.515 45.876 8.48 8.519 17.342 10.879 28.162 8.264l-.842-3.437c-9.812 2.34-17.831.186-25.508-7.52-11.966-12.005-11.731-30.982-3.261-41.596 8.176-10.262 20.935-10.076 28.406-2.722 7.501 7.373 7.903 19.27 2.81 26.36-5.209 7.246-13.914 7.393-19.054 2.271-5.131-5.111-5.16-13.248-1.577-17.9 3.525-4.582 9.156-4.563 12.465-1.292 3.31 3.27 3.437 8.529 1.165 11.613-2.29 3.114-2.164 3.682.353.245zm102.925-95.736c5.532-5.885 13.317-26.096 12.817-37.523-.754-17.234-9.772-19.085-18.546-18.83-11.75.333-14.55 3.32-14.12 12.005.724 14.403 28.014 32.684 19.849 44.348zm60.494 9.547c4.152 11.34-9.714 42.037-20.72 54.365-16.304 18.252-30.59 16.01-39.472 7.795-11.77-10.899-12.073-16.637-4.161-25.744 13.307-15.324 62.405-15.501 64.353-36.416zm2.222-132.927c-6.815-4.22-19.535-21.62-22.022-32.636-3.71-16.421 3.29-23.814 11.516-25.773 10.947-2.595 23.275 3.124 16.215 7.618-14.032 8.93-16.568 41.674-5.709 50.791zm21.611 12.485c-4.876-3.045-13.963-15.589-15.745-23.54-2.644-11.838 2.36-17.175 8.235-18.585 7.824-1.87 16.637 2.252 11.584 5.493-10.026 6.443-11.839 30.062-4.074 36.632z"/><path d="M395.368 386.913c-1.194 3.467-.568 13.415 1.86 18.155 3.643 7.128 8.461 7.745 12.025 5.983 4.73-2.321 7.364-8.05 3.486-7.599-7.755.91-18.556-10.165-17.37-16.539zm-261.456-91.379c2.242-.333 7.452-3.348 9.283-5.796 2.644-3.555 1.694-6.023-.098-7.324-2.38-1.723-5.983-1.674-4.759.088 2.458 3.563-.578 11.897-4.426 13.032zm238.386-44.358c16.108 2.869 59.026-6.11 77.768-19.3 27.917-19.633 27.477-40.246 17.792-54.346-12.935-18.83-20.817-20.318-34.81-10.644-23.472 16.226-31.863 85.26-60.75 84.29zm-25.821 43.664c9.704 9.135 43.183 22.09 62.052 21.356 28.171-1.097 37.131-15.58 36.73-29.67-.53-18.742-5.318-23.256-19.31-22.786-23.413.803-60.172 44.622-79.472 31.1zm2.771-170.422a5.556 5.556 0 0 1 5.552-5.562 5.556 5.556 0 0 1 5.552 5.562 5.556 5.556 0 0 1-5.552 5.562 5.555 5.555 0 0 1-5.552-5.562zm9.929 15.374a5.556 5.556 0 0 1 5.552-5.562 5.556 5.556 0 0 1 5.552 5.562 5.556 5.556 0 0 1-5.552 5.561 5.555 5.555 0 0 1-5.552-5.561zm2.468 19.036a5.556 5.556 0 0 1 5.552-5.562 5.556 5.556 0 0 1 5.552 5.562 5.556 5.556 0 0 1-5.552 5.562 5.557 5.557 0 0 1-5.552-5.562zM217.77 430.037c1.636 1.734 1.558 4.465-.166 6.091a4.293 4.293 0 0 1-6.08-.196c-1.636-1.733-1.567-4.455.156-6.08a4.305 4.305 0 0 1 6.09.185zm-14.824 6.491c1.635 1.734 1.557 4.466-.167 6.091-1.723 1.626-4.445 1.537-6.08-.196a4.304 4.304 0 0 1 .166-6.09c1.723-1.625 4.445-1.538 6.08.195zm-14.874-3.162c1.635 1.733 1.566 4.455-.157 6.08a4.305 4.305 0 0 1-6.09-.186c-1.636-1.733-1.558-4.465.166-6.09a4.295 4.295 0 0 1 6.08.196zm245.612-114.223c1.636 1.733 1.557 4.465-.166 6.09a4.293 4.293 0 0 1-6.08-.195c-1.636-1.733-1.568-4.456.156-6.081a4.305 4.305 0 0 1 6.09.186zm-14.824 6.491c1.635 1.733 1.556 4.465-.167 6.09-1.724 1.626-4.446 1.538-6.081-.195a4.304 4.304 0 0 1 .166-6.09c1.724-1.625 4.446-1.538 6.081.195zm-14.875-3.163c1.635 1.733 1.567 4.456-.156 6.081a4.305 4.305 0 0 1-6.091-.186c-1.635-1.733-1.557-4.465.166-6.09a4.295 4.295 0 0 1 6.081.195zm-294.044 1.382c-1.948.666-4.044-.313-4.68-2.194-.637-1.88.42-3.936 2.37-4.602 1.938-.666 4.034.323 4.67 2.203.646 1.87-.411 3.926-2.36 4.593zm.354-13.572c-1.949.656-4.044-.323-4.68-2.203-.637-1.87.42-3.936 2.369-4.593 1.939-.665 4.034.314 4.67 2.194.646 1.87-.412 3.936-2.36 4.602zm7.881-10.331c-1.948.665-4.044-.324-4.68-2.194-.637-1.88.42-3.936 2.37-4.602 1.938-.666 4.034.313 4.67 2.193.646 1.881-.411 3.937-2.36 4.603zm355.714-81.675c2.223.588 3.623 2.88 3.153 5.141-.48 2.272-2.683 3.672-4.925 3.104-2.262-.558-3.692-2.888-3.192-5.18.51-2.281 2.732-3.652 4.964-3.065zm-8.42 13.475c2.3.548 3.75 2.888 3.24 5.228-.509 2.36-2.8 3.848-5.13 3.33-2.341-.53-3.82-2.909-3.281-5.288.539-2.37 2.86-3.829 5.17-3.27zm-14.385 5.795c2.409.539 3.907 2.938 3.349 5.356-.559 2.439-2.977 4.005-5.425 3.486a4.455 4.455 0 0 1-3.398-5.415c.588-2.448 3.045-3.984 5.474-3.427zm-52.427 184.952c2.262.812 3.477 3.28 2.713 5.503-.774 2.222-3.232 3.368-5.494 2.546-2.262-.813-3.476-3.271-2.712-5.504.764-2.222 3.222-3.358 5.493-2.545zm-10.849 12.426c2.262.812 3.476 3.28 2.712 5.503-.773 2.222-3.221 3.358-5.493 2.546-2.262-.813-3.476-3.28-2.712-5.504.763-2.222 3.221-3.368 5.493-2.545zm-15.423 6.757c2.262.823 3.477 3.28 2.713 5.513-.764 2.223-3.222 3.359-5.494 2.546-2.261-.813-3.476-3.28-2.712-5.503.774-2.223 3.231-3.369 5.493-2.556z"/></g></symbol></svg>